HIERARCHY
ROOT hips
{
	OFFSET 0.000000 104.274902 0.000000
	CHANNELS 6 Xposition Yposition Zposition Xrotation Yrotation Zrotation
	JOINT spine
	{
		OFFSET 0.000000 10.181549 0.131524
		CHANNELS 6 Xposition Yposition Zposition Xrotation Yrotation Zrotation
		JOINT chest
		{
			OFFSET 0.000000 9.893990 -1.470706
			CHANNELS 3 Xrotation Yrotation Zrotation
			JOINT upperChest
			{
				OFFSET 0.000000 9.220787 -1.370637
				CHANNELS 3 Xrotation Yrotation Zrotation
				JOINT neck
				{
					OFFSET 0.000000 16.740372 -2.049022
					CHANNELS 6 Xposition Yposition Zposition Xrotation Yrotation Zrotation
					JOINT head
					{
						OFFSET 0.000000 9.617859 1.684976
						CHANNELS 6 Xposition Yposition Zposition Xrotation Yrotation Zrotation
						JOINT headEnd
						{
							OFFSET 0.000000 22.037384 7.501072
							CHANNELS 6 Xposition Yposition Zposition Xrotation Yrotation Zrotation
							End Site
							{
								OFFSET 0.000000 23.106567 -2.828246
							}
						}
					}
				}
				JOINT rightShoulder
				{
					OFFSET -4.570000 11.014877 -2.160840
					CHANNELS 6 Xposition Yposition Zposition Xrotation Yrotation Zrotation
					JOINT rightUpperArm
					{
						OFFSET -10.592867 -0.524796 -2.232105
						CHANNELS 3 Xrotation Yrotation Zrotation
						JOINT rightLowerArm
						{
							OFFSET -27.841497 0.000000 -0.000002
							CHANNELS 3 Xrotation Yrotation Zrotation
							JOINT rightHand
							{
								OFFSET -28.328812 0.000000 -0.000001
								CHANNELS 3 Xrotation Yrotation Zrotation
								JOINT rightThumbProximal
								{
									OFFSET -2.464798 -1.573990 2.681911
									CHANNELS 6 Xposition Yposition Zposition Xrotation Yrotation Zrotation
									JOINT rightThumbIntermediate
									{
										OFFSET -3.244781 -1.873383 1.873376
										CHANNELS 3 Xrotation Yrotation Zrotation
										JOINT rightThumbDistal
										{
											OFFSET -2.646263 -1.527817 1.527818
											CHANNELS 6 Xposition Yposition Zposition Xrotation Yrotation Zrotation
											JOINT rightHandThumb4
											{
												OFFSET -1.994591 -1.151581 1.151575
												CHANNELS 6 Xposition Yposition Zposition Xrotation Yrotation Zrotation
												End Site
												{
													OFFSET -1.860176 -1.142715 1.365483
												}
											}
										}
									}
								}
								JOINT rightIndexProximal
								{
									OFFSET -9.108299 -0.517883 2.259803
									CHANNELS 6 Xposition Yposition Zposition Xrotation Yrotation Zrotation
									JOINT rightIndexIntermediate
									{
										OFFSET -3.699997 0.000000 0.000000
										CHANNELS 3 Xrotation Yrotation Zrotation
										JOINT rightIndexDistal
										{
											OFFSET -2.850006 0.000000 0.000000
											CHANNELS 3 Xrotation Yrotation Zrotation
											JOINT rightHandIndex4
											{
												OFFSET -2.772194 0.000000 0.000000
												CHANNELS 3 Xrotation Yrotation Zrotation
												End Site
												{
													OFFSET -2.772202 0.000000 -0.000484
												}
											}
										}
									}
								}
								JOINT rightMiddleProximal
								{
									OFFSET -9.532501 0.000000 -0.000000
									CHANNELS 6 Xposition Yposition Zposition Xrotation Yrotation Zrotation
									JOINT rightMiddleIntermediate
									{
										OFFSET -3.699997 0.000000 0.000000
										CHANNELS 3 Xrotation Yrotation Zrotation
										JOINT rightMiddleDistal
										{
											OFFSET -2.949997 0.000000 0.000000
											CHANNELS 3 Xrotation Yrotation Zrotation
											JOINT rightHandMiddle4
											{
												OFFSET -2.946594 0.000000 0.000000
												CHANNELS 3 Xrotation Yrotation Zrotation
												End Site
												{
													OFFSET -2.946602 0.000000 -0.000982
												}
											}
										}
									}
								}
								JOINT rightRingProximal
								{
									OFFSET -9.103600 -0.043106 -1.865100
									CHANNELS 6 Xposition Yposition Zposition Xrotation Yrotation Zrotation
									JOINT rightRingIntermediate
									{
										OFFSET -3.379303 0.000000 0.000000
										CHANNELS 3 Xrotation Yrotation Zrotation
										JOINT rightRingDistal
										{
											OFFSET -2.889694 0.000000 0.000000
											CHANNELS 3 Xrotation Yrotation Zrotation
											JOINT rightHandRing4
											{
												OFFSET -2.638802 0.000000 0.000000
												CHANNELS 3 Xrotation Yrotation Zrotation
												End Site
												{
													OFFSET -2.638802 0.000000 0.004218
												}
											}
										}
									}
								}
								JOINT rightLittleProximal
								{
									OFFSET -8.076698 -0.486725 -3.806299
									CHANNELS 6 Xposition Yposition Zposition Xrotation Yrotation Zrotation
									JOINT rightLittleIntermediate
									{
										OFFSET -3.600006 0.000000 0.000000
										CHANNELS 3 Xrotation Yrotation Zrotation
										JOINT rightLittleDistal
										{
											OFFSET -2.099998 0.000000 0.000000
											CHANNELS 3 Xrotation Yrotation Zrotation
											JOINT rightHandPinky4
											{
												OFFSET -2.115791 0.000000 0.000000
												CHANNELS 3 Xrotation Yrotation Zrotation
												End Site
												{
													OFFSET -2.115799 0.000000 0.000174
												}
											}
										}
									}
								}
							}
						}
					}
				}
				JOINT leftShoulder
				{
					OFFSET 4.570400 11.014679 -2.160816
					CHANNELS 6 Xposition Yposition Zposition Xrotation Yrotation Zrotation
					JOINT leftUpperArm
					{
						OFFSET 10.592373 -0.524597 -2.232116
						CHANNELS 3 Xrotation Yrotation Zrotation
						JOINT leftLowerArm
						{
							OFFSET 27.841488 0.000000 0.000001
							CHANNELS 3 Xrotation Yrotation Zrotation
							JOINT leftHand
							{
								OFFSET 28.328808 0.000000 -0.000000
								CHANNELS 3 Xrotation Yrotation Zrotation
								JOINT leftThumbProximal
								{
									OFFSET 2.466103 -1.576202 2.681698
									CHANNELS 6 Xposition Yposition Zposition Xrotation Yrotation Zrotation
									JOINT leftThumbIntermediate
									{
										OFFSET 3.243317 -1.872528 1.872530
										CHANNELS 3 Xrotation Yrotation Zrotation
										JOINT leftThumbDistal
										{
											OFFSET 2.647881 -1.528763 1.528754
											CHANNELS 6 Xposition Yposition Zposition Xrotation Yrotation Zrotation
											JOINT leftHandThumb4
											{
												OFFSET 1.998924 -1.154083 1.154080
												CHANNELS 6 Xposition Yposition Zposition Xrotation Yrotation Zrotation
												End Site
												{
													OFFSET 1.884041 -1.149155 1.337651
												}
											}
										}
									}
								}
								JOINT leftIndexProximal
								{
									OFFSET 9.109299 -0.518005 2.259900
									CHANNELS 6 Xposition Yposition Zposition Xrotation Yrotation Zrotation
									JOINT leftIndexIntermediate
									{
										OFFSET 3.699997 0.000000 0.000000
										CHANNELS 3 Xrotation Yrotation Zrotation
										JOINT leftIndexDistal
										{
											OFFSET 2.850006 0.000000 0.000000
											CHANNELS 3 Xrotation Yrotation Zrotation
											JOINT leftHandIndex4
											{
												OFFSET 2.774895 0.000000 0.000000
												CHANNELS 3 Xrotation Yrotation Zrotation
												End Site
												{
													OFFSET 2.774902 0.000000 -0.000072
												}
											}
										}
									}
								}
								JOINT leftMiddleProximal
								{
									OFFSET 9.533401 0.000000 0.000000
									CHANNELS 6 Xposition Yposition Zposition Xrotation Yrotation Zrotation
									JOINT leftMiddleIntermediate
									{
										OFFSET 3.699997 0.000000 0.000000
										CHANNELS 3 Xrotation Yrotation Zrotation
										JOINT leftMiddleDistal
										{
											OFFSET 2.949997 0.000000 0.000000
											CHANNELS 3 Xrotation Yrotation Zrotation
											JOINT leftHandMiddle4
											{
												OFFSET 2.952896 0.000000 0.000000
												CHANNELS 3 Xrotation Yrotation Zrotation
												End Site
												{
													OFFSET 2.952904 0.000000 0.000165
												}
											}
										}
									}
								}
								JOINT leftRingProximal
								{
									OFFSET 9.104500 -0.042999 -1.865101
									CHANNELS 6 Xposition Yposition Zposition Xrotation Yrotation Zrotation
									JOINT leftRingIntermediate
									{
										OFFSET 3.149994 0.000000 0.000000
										CHANNELS 3 Xrotation Yrotation Zrotation
										JOINT leftRingDistal
										{
											OFFSET 2.950005 0.000000 0.000000
											CHANNELS 3 Xrotation Yrotation Zrotation
											JOINT leftHandRing4
											{
												OFFSET 2.644302 0.000000 0.000000
												CHANNELS 3 Xrotation Yrotation Zrotation
												End Site
												{
													OFFSET 2.644302 0.000000 0.000083
												}
											}
										}
									}
								}
								JOINT leftLittleProximal
								{
									OFFSET 8.077805 -0.486893 -3.806302
									CHANNELS 6 Xposition Yposition Zposition Xrotation Yrotation Zrotation
									JOINT leftLittleIntermediate
									{
										OFFSET 3.600006 0.000000 0.000000
										CHANNELS 3 Xrotation Yrotation Zrotation
										JOINT leftLittleDistal
										{
											OFFSET 2.099998 0.000000 0.000000
											CHANNELS 3 Xrotation Yrotation Zrotation
											JOINT leftHandPinky4
											{
												OFFSET 2.125496 0.000000 0.000000
												CHANNELS 3 Xrotation Yrotation Zrotation
												End Site
												{
													OFFSET 2.125504 0.000000 -0.001254
												}
											}
										}
									}
								}
							}
						}
					}
				}
			}
		}
	}
	JOINT rightUpperLeg
	{
		OFFSET -8.207800 -6.751701 -1.599544
		CHANNELS 6 Xposition Yposition Zposition Xrotation Yrotation Zrotation
		JOINT rightLowerLeg
		{
			OFFSET 0.000004 -44.370152 0.345934
			CHANNELS 3 Xrotation Yrotation Zrotation
			JOINT rightFoot
			{
				OFFSET 0.000004 -44.423664 -3.043535
				CHANNELS 3 Xrotation Yrotation Zrotation
				JOINT rightToes
				{
					OFFSET 0.000001 -8.728691 10.710592
					CHANNELS 3 Xrotation Yrotation Zrotation
					JOINT rightToesEnd
					{
						OFFSET 0.000000 -0.000665 9.278101
						CHANNELS 3 Xrotation Yrotation Zrotation
						End Site
						{
							OFFSET 0.000000 -0.000665 9.278103
						}
					}
				}
			}
		}
	}
	JOINT leftUpperLeg
	{
		OFFSET 8.207800 -6.751701 -1.599544
		CHANNELS 6 Xposition Yposition Zposition Xrotation Yrotation Zrotation
		JOINT leftLowerLeg
		{
			OFFSET 0.000004 -44.370037 0.346940
			CHANNELS 3 Xrotation Yrotation Zrotation
			JOINT leftFoot
			{
				OFFSET 0.000004 -44.423611 -3.044388
				CHANNELS 3 Xrotation Yrotation Zrotation
				JOINT leftToes
				{
					OFFSET 0.000001 -8.728690 10.710592
					CHANNELS 3 Xrotation Yrotation Zrotation
					JOINT leftToesEnd
					{
						OFFSET 0.000000 -0.000680 9.278101
						CHANNELS 3 Xrotation Yrotation Zrotation
						End Site
						{
							OFFSET 0.000000 -0.000680 9.278101
						}
					}
				}
			}
		}
	}
}
MOTION
Frames: 4
Frame Time: 0.033333
-0.131064 87.225304 2.215685 -13.313762 -15.619562 2.322249 0.000000 10.181555 0.131525 4.889777 20.736994 5.085522 7.952623 2.378560 -8.530674 8.245474 2.276732 -8.229437 0.000001 16.740389 -2.049020 -3.646291 -3.880403 4.125059 0.000001 9.617837 1.684975 2.766927 -12.994419 3.098087 0.000001 22.037354 7.501073 -0.000000 -0.000000 -0.000000 -4.570000 11.014858 -2.160840 1.942150 12.078384 6.674254 -27.003371 -14.423027 37.435915 -0.000127 76.025190 0.000165 36.542574 -0.429107 -19.614374 -2.464792 -1.574001 2.681911 -1.675457 -19.703938 -7.089820 5.118899 -13.930182 -0.598151 -2.646267 -1.527813 1.527821 -0.382448 -9.992831 -3.138593 -1.994589 -1.151583 1.151572 0.000000 0.000002 -0.000001 -9.108304 -0.517877 2.259797 0.841220 -3.320252 28.427415 0.012347 -0.415032 3.407681 0.020533 0.535109 -4.395380 -0.000001 0.000000 0.000000 -9.532504 -0.000002 -0.000003 0.979029 -3.562652 30.722905 0.075558 -1.024385 8.437213 0.000975 0.116488 -0.955930 -0.000001 -0.000001 0.000001 -9.103601 -0.043099 -1.865105 1.167817 -3.862049 33.637951 0.225100 -1.758271 14.589491 0.012770 -0.422179 3.466433 -0.000001 -0.000000 0.000002 -8.076688 -0.486726 -3.806300 1.332923 -4.098801 36.016175 0.396041 -2.317362 19.393974 0.053307 -0.861118 7.084601 0.000000 -0.000000 0.000000 4.570401 11.014687 -2.160815 0.566121 -3.137709 1.463837 -47.293750 -41.766969 -60.074464 -0.000010 -41.122660 -0.000005 28.999050 -15.937932 25.565477 2.466099 -1.576210 2.681704 -2.229571 22.637462 9.128559 4.766332 18.189067 1.497611 2.647879 -1.528721 1.528752 -1.384185 8.809153 7.207741 1.998917 -1.154086 1.154085 -0.000001 -0.000001 -0.000000 9.109303 -0.518010 2.259903 0.069791 0.979942 -8.148269 0.457449 2.472377 -20.964079 0.398503 2.312766 -19.551738 -0.000002 -0.000001 -0.000001 9.533400 0.000008 0.000003 0.126352 1.315714 -10.971274 0.449119 2.450527 -20.769827 0.508121 2.600620 -22.108866 0.000001 0.000000 0.000001 9.104497 -0.042998 -1.865097 0.221677 1.736536 -14.549684 0.436925 2.418129 -20.482486 0.661397 2.949545 -25.273957 -0.000002 0.000001 -0.000000 8.077796 -0.486886 -3.806298 1.519310 5.942362 -16.995893 0.428933 -1.669543 -20.700234 0.799231 3.224967 -27.832848 -0.000001 0.000001 -0.000001 -8.207801 -6.751704 -1.599540 -27.520427 -4.630997 -8.891307 68.613908 -4.762823 -9.228750 -29.234128 -2.536434 8.418267 -0.000142 0.000009 0.000002 -0.000000 0.000000 0.000000 8.207799 -6.751689 -1.599545 -12.718723 8.756800 1.620357 67.002318 8.956191 6.208202 -27.604080 8.185434 -12.126398 -13.586084 -0.000001 -0.000001 0.000000 -0.000001 0.000000 
-0.742236 87.612976 2.369570 -12.749664 -13.636975 1.919748 -0.000001 10.181540 0.131522 2.851446 17.675061 4.755225 8.315141 2.033612 -6.774168 8.512009 1.968075 -6.498562 0.000001 16.740362 -2.049017 -4.130814 -3.418932 4.080342 -0.000000 9.617847 1.684976 1.364342 -11.069170 -2.287491 -0.000000 22.037384 7.501076 -0.000000 0.000000 0.000000 -4.569999 11.014877 -2.160839 1.568449 8.960342 6.442220 -28.105054 -8.215108 39.440541 -0.000185 75.918584 0.000218 34.966453 -1.088616 -19.187262 -2.464801 -1.574005 2.681912 -1.675460 -19.703941 -7.089819 5.118899 -13.930184 -0.598149 -2.646263 -1.527821 1.527815 -0.382452 -9.992834 -3.138595 -1.994578 -1.151587 1.151576 0.000003 -0.000006 -0.000002 -9.108310 -0.517874 2.259803 1.173788 -3.870963 33.726484 0.026294 -0.605404 4.974121 0.026060 0.602644 -4.951338 0.000001 -0.000000 -0.000000 -9.532492 0.000006 0.000000 1.148794 -3.833368 33.354484 0.088160 -1.105978 9.114708 0.001292 0.134313 -1.102275 0.000001 -0.000000 0.000001 -9.103580 -0.043098 -1.865102 1.121355 -3.791440 32.941767 0.211234 -1.704169 14.130938 0.015760 -0.468913 3.850651 0.000000 0.000000 0.000002 -8.076688 -0.486718 -3.806300 1.102273 -3.761894 32.652102 0.343033 -2.160985 18.037246 0.066013 -0.957926 7.885960 -0.000001 0.000000 -0.000001 4.570401 11.014690 -2.160813 0.648783 -4.125233 2.603057 -39.582657 -35.282312 -53.979473 -0.000018 -51.507932 -0.000033 26.635754 -16.907406 23.925859 2.466101 -1.576204 2.681701 -2.229576 22.637465 9.128560 4.766327 18.189069 1.497611 2.647876 -1.528760 1.528737 -1.384180 8.809154 7.207742 1.998921 -1.154090 1.154074 -0.000002 0.000000 -0.000002 9.109296 -0.517998 2.259901 0.037087 0.715303 -5.937941 0.316609 2.067885 -17.409181 0.454272 2.464041 -20.890006 -0.000001 0.000000 -0.000000 9.533404 0.000020 0.000001 0.156454 1.462481 -12.213321 0.355482 2.187945 -18.456266 0.525441 2.642810 -22.487380 0.000002 -0.000001 0.000001 9.104500 -0.042982 -1.865101 0.421286 2.375898 -20.108803 0.405584 2.332591 -19.726355 0.620164 2.860688 -24.460332 -0.000000 0.000001 0.000003 8.077800 -0.486873 -3.806300 2.524295 6.712893 -26.095610 0.448494 -1.618389 -21.153188 0.704452 3.038929 -26.098093 0.000001 0.000003 -0.000002 -8.207800 -6.751713 -1.599539 -26.849378 -5.905372 -8.149808 67.405914 -6.330145 -9.204231 -29.251767 -2.206681 8.923830 -0.017538 0.000003 -0.000001 -0.000000 -0.000000 -0.000000 8.207800 -6.751707 -1.599548 -15.049164 3.483346 3.042056 69.206639 8.389570 3.197388 -21.020303 6.129758 -13.220661 -15.732277 0.141608 -3.295873 0.000000 0.000000 0.000000 
-1.270037 88.560486 2.639622 -12.144888 -10.450785 1.664681 -0.000001 10.181543 0.131524 0.759017 11.495883 3.165384 8.640369 1.300923 -4.420212 8.731505 1.272571 -4.232089 0.000000 16.740368 -2.049023 -4.403480 -2.362743 3.004366 -0.000002 9.617860 1.684975 0.106527 -6.610895 -7.239470 -0.000000 22.037399 7.501072 -0.000001 -0.000000 0.000000 -4.570003 11.014885 -2.160842 1.333370 6.945434 6.748256 -31.861316 1.558801 42.509110 -0.000136 75.038999 0.000200 33.645461 -2.588382 -18.449693 -2.464799 -1.573985 2.681912 -1.675461 -19.703940 -7.089821 5.118904 -13.930182 -0.598151 -2.646278 -1.527793 1.527814 -0.382454 -9.992831 -3.138596 -1.994579 -1.151583 1.151584 0.000001 0.000000 0.000001 -9.108299 -0.517865 2.259800 1.339697 -4.108060 36.110766 0.060688 -0.918566 7.559895 0.026394 0.606482 -4.982997 -0.000001 -0.000000 0.000000 -9.532514 0.000016 0.000001 1.212066 -3.927571 34.289445 0.114389 -1.258626 10.386366 0.001276 0.133526 -1.095703 -0.000001 0.000000 -0.000001 -9.103601 -0.043082 -1.865105 1.064376 -3.702208 32.069794 0.200099 -1.659307 13.751034 0.016198 -0.475438 3.904286 -0.000001 0.000001 -0.000001 -8.076701 -0.486712 -3.806301 0.954911 -3.521840 30.332481 0.282019 -1.963913 16.342146 0.067524 -0.968610 7.974575 -0.000003 -0.000000 -0.000000 4.570400 11.014671 -2.160818 0.863760 -5.959284 3.264487 -29.922803 -23.196999 -46.561830 0.000001 -61.656541 0.000003 29.202641 -17.514386 25.051262 2.466096 -1.576200 2.681698 -2.229578 22.637463 9.128559 4.766329 18.189064 1.497608 2.647883 -1.528738 1.528749 -1.384186 8.809152 7.207742 1.998913 -1.154076 1.154073 -0.000001 -0.000003 0.000001 9.109280 -0.518010 2.259899 0.033143 0.676268 -5.612964 0.221550 1.736065 -14.545586 0.440724 2.428269 -20.572600 0.000001 -0.000001 0.000000 9.533390 0.000000 0.000002 0.191756 1.616949 -13.527348 0.316884 2.068773 -17.416839 0.499366 2.578964 -21.914739 0.000000 0.000001 -0.000002 9.104493 -0.043001 -1.865101 0.571944 2.752353 -23.475587 0.457536 2.472593 -20.965860 0.577010 2.763966 -23.580649 0.000000 -0.000000 0.000000 8.077785 -0.486888 -3.806299 3.132279 7.069328 -31.159695 0.589978 -1.279770 -24.190838 0.646347 2.917497 -24.979764 0.000001 0.000001 -0.000001 -8.207804 -6.751725 -1.599545 -25.145046 -6.144516 -7.456194 65.100466 -8.115680 -7.951537 -28.696306 -2.848904 9.381611 -0.016313 0.000002 -0.000001 -0.000000 -0.000002 0.000000 8.207798 -6.751715 -1.599544 -17.886011 0.279816 4.289409 71.531512 8.649092 2.510566 -18.184014 3.983138 -14.790170 -9.890348 0.065229 -2.544540 -0.000001 -0.000000 0.000000 
-1.751466 89.807495 3.021797 -11.699382 -6.577876 1.548031 -0.000001 10.181546 0.131523 -1.196294 2.152341 0.042888 8.915542 0.162959 -1.685767 8.940115 0.164397 -1.653883 0.000000 16.740368 -2.049018 -3.891938 -0.637750 1.366643 -0.000003 9.617838 1.684977 -1.192837 0.624896 -11.201812 -0.000001 22.037384 7.501072 -0.000000 -0.000000 -0.000001 -4.570003 11.014876 -2.160840 1.431271 7.383152 7.760863 -38.513944 13.599823 47.893150 -0.000087 70.896988 0.000110 33.644033 -3.358471 -18.775481 -2.464797 -1.573984 2.681906 -1.675459 -19.703941 -7.089821 5.118897 -13.930185 -0.598152 -2.646292 -1.527776 1.527821 -0.382451 -9.992830 -3.138593 -1.994599 -1.151576 1.151586 -0.000003 -0.000001 0.000003 -9.108301 -0.517884 2.259797 1.330444 -4.095373 35.981317 0.107158 -1.218452 10.051135 0.019226 0.517800 -4.252821 -0.000001 0.000000 0.000000 -9.532493 0.000004 -0.000005 1.203588 -3.915155 34.165402 0.142309 -1.402365 11.588434 0.000603 0.092324 -0.757688 -0.000001 0.000000 0.000001 -9.103598 -0.043086 -1.865105 1.056793 -3.690116 31.952328 0.188521 -1.611291 13.345458 0.014873 -0.455461 3.740092 -0.000000 -0.000000 0.000002 -8.076689 -0.486723 -3.806306 0.948019 -3.510061 30.220151 0.226892 -1.765182 14.648089 0.058375 -0.900949 7.414150 0.000003 -0.000001 0.000002 4.570400 11.014693 -2.160815 1.119450 -8.236537 2.653949 -21.759060 -4.973199 -41.053808 -0.000020 -69.913393 -0.000000 36.386231 -15.821689 27.899578 2.466101 -1.576210 2.681700 -2.229571 22.637463 9.128564 4.766332 18.189067 1.497616 2.647885 -1.528749 1.528749 -1.384188 8.809155 7.207738 1.998921 -1.154097 1.154071 0.000003 -0.000000 -0.000002 9.109294 -0.518024 2.259899 0.053331 0.857204 -7.121817 0.179172 1.563708 -13.073622 0.380124 2.260375 -19.091094 -0.000001 -0.000000 -0.000001 9.533410 -0.000012 0.000002 0.211122 1.695382 -14.197253 0.326592 2.099462 -17.683737 0.456116 2.468879 -20.932911 -0.000000 0.000001 -0.000001 9.104492 -0.043014 -1.865100 0.553928 2.710539 -23.097407 0.568284 2.743914 -23.399197 0.560537 2.725956 -23.236748 -0.000001 0.000001 0.000005 8.077796 -0.486913 -3.806301 2.981607 6.987672 -29.928175 0.812601 -0.828865 -28.354499 0.653754 2.933313 -25.124820 -0.000000 0.000000 -0.000003 -8.207801 -6.751700 -1.599537 -22.711625 -5.319516 -6.505994 62.289597 -9.306931 -6.028275 -27.663490 -5.430803 9.337295 0.000004 0.000000 -0.000005 -0.000000 0.000000 0.000000 8.207800 -6.751717 -1.599545 -20.591181 0.586620 5.672388 72.468560 8.725430 4.372789 -17.190884 2.867899 -15.771800 -2.218964 0.000003 0.000004 -0.000003 -0.000001 -0.000000 
